<svg width="16" height="16" viewBox="0 0 16 16" fill="none" xmlns="http://www.w3.org/2000/svg">
<path d="M4.66663 14C4.29996 14 3.98607 13.8694 3.72496 13.6083C3.46385 13.3472 3.33329 13.0333 3.33329 12.6667V4C3.1444 4 2.98607 3.93611 2.85829 3.80833C2.73051 3.68056 2.66663 3.52222 2.66663 3.33333C2.66663 3.14444 2.73051 2.98611 2.85829 2.85833C2.98607 2.73056 3.1444 2.66667 3.33329 2.66667H5.99996C5.99996 2.47778 6.06385 2.31944 6.19163 2.19167C6.3194 2.06389 6.47774 2 6.66663 2H9.33329C9.52218 2 9.68051 2.06389 9.80829 2.19167C9.93607 2.31944 9.99996 2.47778 9.99996 2.66667H12.6666C12.8555 2.66667 13.0138 2.73056 13.1416 2.85833C13.2694 2.98611 13.3333 3.14444 13.3333 3.33333C13.3333 3.52222 13.2694 3.68056 13.1416 3.80833C13.0138 3.93611 12.8555 4 12.6666 4V12.6667C12.6666 13.0333 12.5361 13.3472 12.275 13.6083C12.0138 13.8694 11.7 14 11.3333 14H4.66663ZM11.3333 4H4.66663V12.6667H11.3333V4ZM6.66663 11.3333C6.85551 11.3333 7.01385 11.2694 7.14163 11.1417C7.2694 11.0139 7.33329 10.8556 7.33329 10.6667V6C7.33329 5.81111 7.2694 5.65278 7.14163 5.525C7.01385 5.39722 6.85551 5.33333 6.66663 5.33333C6.47774 5.33333 6.3194 5.39722 6.19163 5.525C6.06385 5.65278 5.99996 5.81111 5.99996 6V10.6667C5.99996 10.8556 6.06385 11.0139 6.19163 11.1417C6.3194 11.2694 6.47774 11.3333 6.66663 11.3333ZM9.33329 11.3333C9.52218 11.3333 9.68051 11.2694 9.80829 11.1417C9.93607 11.0139 9.99996 10.8556 9.99996 10.6667V6C9.99996 5.81111 9.93607 5.65278 9.80829 5.525C9.68051 5.39722 9.52218 5.33333 9.33329 5.33333C9.1444 5.33333 8.98607 5.39722 8.85829 5.525C8.73051 5.65278 8.66663 5.81111 8.66663 6V10.6667C8.66663 10.8556 8.73051 11.0139 8.85829 11.1417C8.98607 11.2694 9.1444 11.3333 9.33329 11.3333Z" fill="#015547"/>
</svg>
