<svg width="16" height="17" viewBox="0 0 16 17" fill="none" xmlns="http://www.w3.org/2000/svg">
<path d="M10.817 8.90158H3.64205C3.46014 8.90158 3.30765 8.83838 3.18459 8.71197C3.06153 8.58557 3 8.42894 3 8.24208C3 8.05522 3.06153 7.89859 3.18459 7.77219C3.30765 7.64578 3.46014 7.58258 3.64205 7.58258H10.817L7.67095 4.35103C7.54254 4.21913 7.48101 4.06525 7.48636 3.88938C7.49171 3.71351 7.55859 3.55963 7.687 3.42773C7.81541 3.30682 7.96522 3.24362 8.13644 3.23812C8.30765 3.23263 8.45746 3.29583 8.58587 3.42773L12.8234 7.78043C12.8876 7.84638 12.9331 7.91783 12.9599 7.99477C12.9866 8.07171 13 8.15415 13 8.24208C13 8.33001 12.9866 8.41245 12.9599 8.48939C12.9331 8.56633 12.8876 8.63778 12.8234 8.70373L8.58587 13.0564C8.46816 13.1773 8.32103 13.2378 8.14446 13.2378C7.9679 13.2378 7.81541 13.1773 7.687 13.0564C7.55859 12.9245 7.49438 12.7679 7.49438 12.5865C7.49438 12.4052 7.55859 12.2485 7.687 12.1166L10.817 8.90158Z" fill="#015547"/>
</svg>
