<svg width="10" height="10" viewBox="0 0 10 10" fill="none" xmlns="http://www.w3.org/2000/svg">
<path d="M5.00003 5.93337L1.73337 9.20004C1.61114 9.32226 1.45559 9.38337 1.2667 9.38337C1.07781 9.38337 0.922255 9.32226 0.800033 9.20004C0.67781 9.07781 0.616699 8.92226 0.616699 8.73337C0.616699 8.54448 0.67781 8.38892 0.800033 8.2667L4.0667 5.00003L0.800033 1.73337C0.67781 1.61114 0.616699 1.45559 0.616699 1.2667C0.616699 1.07781 0.67781 0.922255 0.800033 0.800033C0.922255 0.67781 1.07781 0.616699 1.2667 0.616699C1.45559 0.616699 1.61114 0.67781 1.73337 0.800033L5.00003 4.0667L8.2667 0.800033C8.38892 0.67781 8.54448 0.616699 8.73337 0.616699C8.92226 0.616699 9.07781 0.67781 9.20004 0.800033C9.32226 0.922255 9.38337 1.07781 9.38337 1.2667C9.38337 1.45559 9.32226 1.61114 9.20004 1.73337L5.93337 5.00003L9.20004 8.2667C9.32226 8.38892 9.38337 8.54448 9.38337 8.73337C9.38337 8.92226 9.32226 9.07781 9.20004 9.20004C9.07781 9.32226 8.92226 9.38337 8.73337 9.38337C8.54448 9.38337 8.38892 9.32226 8.2667 9.20004L5.00003 5.93337Z" fill="#015547"/>
</svg>
