<svg width="17" height="17" viewBox="0 0 17 17" fill="none" xmlns="http://www.w3.org/2000/svg">
<path d="M4.19674 14.8633C3.83007 14.8633 3.51618 14.7327 3.25507 14.4716C2.99396 14.2105 2.8634 13.8966 2.8634 13.5299V4.19661C2.8634 3.82995 2.99396 3.51606 3.25507 3.25495C3.51618 2.99384 3.83007 2.86328 4.19674 2.86328H8.19674C8.38563 2.86328 8.54396 2.92717 8.67174 3.05495C8.79951 3.18273 8.8634 3.34106 8.8634 3.52995C8.8634 3.71884 8.79951 3.87717 8.67174 4.00495C8.54396 4.13273 8.38563 4.19661 8.19674 4.19661H4.19674V13.5299H13.5301V9.52995C13.5301 9.34106 13.594 9.18273 13.7217 9.05495C13.8495 8.92717 14.0078 8.86328 14.1967 8.86328C14.3856 8.86328 14.544 8.92717 14.6717 9.05495C14.7995 9.18273 14.8634 9.34106 14.8634 9.52995V13.5299C14.8634 13.8966 14.7328 14.2105 14.4717 14.4716C14.2106 14.7327 13.8967 14.8633 13.5301 14.8633H4.19674ZM13.5301 5.12995L7.79674 10.8633C7.67451 10.9855 7.51896 11.0466 7.33007 11.0466C7.14118 11.0466 6.98563 10.9855 6.8634 10.8633C6.74118 10.7411 6.68007 10.5855 6.68007 10.3966C6.68007 10.2077 6.74118 10.0522 6.8634 9.92995L12.5967 4.19661H10.8634C10.6745 4.19661 10.5162 4.13273 10.3884 4.00495C10.2606 3.87717 10.1967 3.71884 10.1967 3.52995C10.1967 3.34106 10.2606 3.18273 10.3884 3.05495C10.5162 2.92717 10.6745 2.86328 10.8634 2.86328H14.1967C14.3856 2.86328 14.544 2.92717 14.6717 3.05495C14.7995 3.18273 14.8634 3.34106 14.8634 3.52995V6.86328C14.8634 7.05217 14.7995 7.2105 14.6717 7.33828C14.544 7.46606 14.3856 7.52995 14.1967 7.52995C14.0078 7.52995 13.8495 7.46606 13.7217 7.33828C13.594 7.2105 13.5301 7.05217 13.5301 6.86328V5.12995Z" fill="#015547"/>
</svg>
