<svg width="25" height="25" viewBox="0 0 25 25" fill="none" xmlns="http://www.w3.org/2000/svg">
<path d="M12.9316 4.93164C13.9925 4.93164 15.0099 5.35307 15.7601 6.10321C16.5102 6.85336 16.9316 7.87077 16.9316 8.93164C16.9316 9.99251 16.5102 11.0099 15.7601 11.7601C15.0099 12.5102 13.9925 12.9316 12.9316 12.9316C11.8708 12.9316 10.8534 12.5102 10.1032 11.7601C9.35307 11.0099 8.93164 9.99251 8.93164 8.93164C8.93164 7.87077 9.35307 6.85336 10.1032 6.10321C10.8534 5.35307 11.8708 4.93164 12.9316 4.93164ZM12.9316 20.9316C12.9316 20.9316 20.9316 20.9316 20.9316 18.9316C20.9316 16.5316 17.0316 13.9316 12.9316 13.9316C8.83164 13.9316 4.93164 16.5316 4.93164 18.9316C4.93164 20.9316 12.9316 20.9316 12.9316 20.9316Z" fill="#73D94F"/>
</svg>
