<svg width="36" height="37" viewBox="0 0 36 37" fill="none" xmlns="http://www.w3.org/2000/svg">
<circle cx="17.9317" cy="18.795" r="17.9317" fill="#73D94F" fill-opacity="0.32"/>
<path d="M13.293 14.9464L13.1081 15.3717C13.0792 15.4409 13.0305 15.5001 12.968 15.5417C12.9056 15.5833 12.8322 15.6055 12.7572 15.6055C12.6822 15.6055 12.6088 15.5833 12.5464 15.5417C12.4839 15.5001 12.4352 15.4409 12.4063 15.3717L12.2214 14.9464C11.8964 14.194 11.3012 13.5907 10.5533 13.2556L9.98292 13.0009C9.91373 12.9691 9.85511 12.9181 9.81403 12.8539C9.77294 12.7898 9.7511 12.7153 9.7511 12.6391C9.7511 12.5629 9.77294 12.4884 9.81403 12.4242C9.85511 12.3601 9.91373 12.3091 9.98292 12.2773L10.5217 12.0376C11.2885 11.693 11.8938 11.0674 12.2132 10.2897L12.4033 9.83063C12.4312 9.75951 12.4799 9.69845 12.543 9.65541C12.6062 9.61237 12.6808 9.58936 12.7572 9.58936C12.8336 9.58936 12.9082 9.61237 12.9714 9.65541C13.0345 9.69845 13.0832 9.75951 13.1111 9.83063L13.3012 10.289C13.6202 11.0668 14.2253 11.6926 14.9919 12.0376L15.5315 12.278C15.6005 12.3099 15.6589 12.3609 15.6998 12.425C15.7407 12.489 15.7625 12.5635 15.7625 12.6395C15.7625 12.7155 15.7407 12.7899 15.6998 12.8539C15.6589 12.918 15.6005 12.969 15.5315 13.0009L14.9604 13.2549C14.2126 13.5903 13.6176 14.1938 13.293 14.9464ZM17.0689 17.6831L20.6472 24.243H25.9072L19.8958 12.9716L17.0689 17.6831ZM19.1443 24.243L14.6358 15.9773L10.1272 24.243H19.1443Z" fill="#015547"/>
</svg>
