<svg width="22" height="22" viewBox="0 0 22 22" fill="none" xmlns="http://www.w3.org/2000/svg">
<path d="M11.0037 6.23521e-07C9.09528 -0.00064185 7.21954 0.495228 5.56077 1.43889C3.902 2.38254 2.51727 3.74152 1.54265 5.38229C0.568027 7.02306 0.0370418 8.88917 0.00186884 10.7973C-0.0333041 12.7053 0.428545 14.5897 1.34204 16.2653L0.0403702 20.8303C-0.00543146 20.9906 -0.00665167 21.1604 0.036841 21.3213C0.0803337 21.4822 0.166892 21.6283 0.287201 21.7437C0.40751 21.8591 0.557013 21.9395 0.71962 21.9762C0.882228 22.013 1.05178 22.0047 1.21004 21.9523L5.49636 20.5241C6.95727 21.3683 8.5928 21.8652 10.2764 21.9761C11.9601 22.0871 13.6467 21.8093 15.2058 21.1642C16.7648 20.5191 18.1546 19.524 19.2676 18.2558C20.3806 16.9876 21.1869 15.4804 21.6242 13.8508C22.0614 12.2212 22.118 10.5128 21.7894 8.8578C21.4608 7.20282 20.7559 5.64561 19.7292 4.30664C18.7025 2.96768 17.3816 1.88284 15.8685 1.13606C14.3555 0.389273 12.691 0.000564573 11.0037 6.23521e-07ZM7.33703 9.16666C7.33703 8.92354 7.43361 8.69038 7.60551 8.51848C7.77742 8.34657 8.01058 8.24999 8.25369 8.24999H13.7537C13.9968 8.24999 14.23 8.34657 14.4019 8.51848C14.5738 8.69038 14.6704 8.92354 14.6704 9.16666C14.6704 9.40977 14.5738 9.64293 14.4019 9.81484C14.23 9.98674 13.9968 10.0833 13.7537 10.0833H8.25369C8.01058 10.0833 7.77742 9.98674 7.60551 9.81484C7.43361 9.64293 7.33703 9.40977 7.33703 9.16666ZM8.25369 11.9167H11.9204C12.1635 11.9167 12.3966 12.0132 12.5685 12.1851C12.7404 12.357 12.837 12.5902 12.837 12.8333C12.837 13.0764 12.7404 13.3096 12.5685 13.4815C12.3966 13.6534 12.1635 13.75 11.9204 13.75H8.25369C8.01058 13.75 7.77742 13.6534 7.60551 13.4815C7.43361 13.3096 7.33703 13.0764 7.33703 12.8333C7.33703 12.5902 7.43361 12.357 7.60551 12.1851C7.77742 12.0132 8.01058 11.9167 8.25369 11.9167Z" fill="#015547"/>
</svg>
