<svg width="36" height="37" viewBox="0 0 36 37" fill="none" xmlns="http://www.w3.org/2000/svg">
<circle cx="17.9317" cy="18.1695" r="17.9317" fill="#015547"/>
<path d="M17.9316 10.1694C18.9925 10.1694 20.0099 10.5909 20.7601 11.341C21.5102 12.0912 21.9316 13.1086 21.9316 14.1694C21.9316 15.2303 21.5102 16.2477 20.7601 16.9979C20.0099 17.748 18.9925 18.1694 17.9316 18.1694C16.8708 18.1694 15.8534 17.748 15.1032 16.9979C14.3531 16.2477 13.9316 15.2303 13.9316 14.1694C13.9316 13.1086 14.3531 12.0912 15.1032 11.341C15.8534 10.5909 16.8708 10.1694 17.9316 10.1694ZM17.9316 26.1694C17.9316 26.1694 25.9316 26.1694 25.9316 24.1694C25.9316 21.7694 22.0316 19.1694 17.9316 19.1694C13.8316 19.1694 9.93164 21.7694 9.93164 24.1694C9.93164 26.1694 17.9316 26.1694 17.9316 26.1694Z" fill="#73D94F"/>
</svg>
