<svg width="16" height="16" viewBox="0 0 16 16" fill="none" xmlns="http://www.w3.org/2000/svg">
<path d="M2 8.66667H6V7.33334H2V1.23067C1.99989 1.17269 2.01491 1.11569 2.04357 1.06529C2.07224 1.01489 2.11355 0.972832 2.16343 0.943279C2.21331 0.913726 2.27004 0.897696 2.32802 0.896771C2.38599 0.895846 2.4432 0.910059 2.494 0.938005L14.802 7.70801C14.8543 7.73678 14.8978 7.77905 14.9282 7.83042C14.9586 7.88178 14.9746 7.94034 14.9746 8.00001C14.9746 8.05967 14.9586 8.11823 14.9282 8.16959C14.8978 8.22096 14.8543 8.26323 14.802 8.29201L2.494 15.0613C2.44325 15.0893 2.3861 15.1035 2.32818 15.1026C2.27027 15.1017 2.21358 15.0857 2.16372 15.0562C2.11385 15.0268 2.07253 14.9848 2.04382 14.9345C2.01511 14.8842 2.00001 14.8273 2 14.7693V8.66667Z" fill="#015547"/>
</svg>
