<svg width="18" height="18" viewBox="0 0 18 18" fill="none" xmlns="http://www.w3.org/2000/svg">
<path id="Facebook" fill-rule="evenodd" clip-rule="evenodd" d="M17.0106 0.0286787L1.02015 0C0.473206 0 0.0286858 0.442472 0.0266373 0.991464L7.05165e-06 16.9799C-0.00204143 17.5288 0.442479 17.9734 0.991471 17.9754L9.59918 17.9897L9.61147 11.0393L7.2762 11.0352L7.28235 8.31478L9.61762 8.31888L9.61967 6.31546C9.62376 3.99454 11.0434 2.73267 13.1144 2.73472C14.1058 2.73677 14.958 2.81256 15.2059 2.84739L15.2018 5.27279L13.774 5.27074C12.6473 5.26869 12.4302 5.80334 12.4281 6.58996L12.4261 8.32297L15.1178 8.32707L14.7634 11.0475L12.4199 11.0434L12.4076 17.9959L16.9799 18C17.5288 18.002 17.9734 17.5596 17.9734 17.0106L18 1.02014C18.002 0.475247 17.5596 0.0286787 17.0106 0.0286787Z" fill="white"/>
</svg>
