<svg width="18" height="18" viewBox="0 0 18 18" fill="none" xmlns="http://www.w3.org/2000/svg">
<path fill-rule="evenodd" clip-rule="evenodd" d="M14.2105 18V11.5385C14.2105 9.96246 13.7484 9.23101 12.3157 9.23101C11.2066 9.23101 10.4788 9.76009 10.2015 10.4806C10.1091 10.7507 9.94733 11.1785 9.94733 11.5385V18H6.1579V5.53864H9.94733V7.84621L10.0166 7.95903L10.1553 7.91383C10.7099 7.10314 12.0385 5.53864 14.2105 5.53864C16.8909 5.53864 18 7.47475 18 11.0773V18H14.2105ZM0 5.5435L3.78949 5.53864L3.79274 18H0V5.5435ZM1.89623 3.69356C0.843625 3.69356 0.00166738 2.88214 0.00166738 1.82667C0.00166738 0.771341 0.843625 0 1.89623 0C2.94874 0 3.79078 0.811849 3.79078 1.86717C3.79078 2.9225 2.99082 3.69356 1.89623 3.69356Z" fill="#D2D2D2"/>
</svg>
