<svg width="52" height="48" viewBox="0 0 52 48" fill="none" xmlns="http://www.w3.org/2000/svg">
<path d="M0 24C0 10.7452 10.7452 0 24 0H28C41.2548 0 52 10.7452 52 24C52 37.2548 41.2548 48 28 48H24C10.7452 48 0 37.2548 0 24Z" fill="#73D94F"/>
<path d="M24 29C27.866 29 31 25.866 31 22C31 18.134 27.866 15 24 15C20.134 15 17 18.134 17 22C17 25.866 20.134 29 24 29Z" stroke="#015547" stroke-width="2" stroke-linecap="round" stroke-linejoin="round"/>
<path d="M29 27L35 33" stroke="#015547" stroke-width="2" stroke-linecap="round" stroke-linejoin="round"/>
</svg>
