<svg width="93" height="104" viewBox="0 0 93 104" fill="none" xmlns="http://www.w3.org/2000/svg">
<circle cx="46" cy="45.8714" r="45.8714" fill="#73D94F" fill-opacity="0.32"/>
<circle cx="46" cy="45.8714" r="42.8714" stroke="#015547" stroke-opacity="0.21" stroke-width="6"/>
<path d="M36.2555 41.188L35.816 42.1992C35.7473 42.3638 35.6314 42.5045 35.483 42.6034C35.3345 42.7024 35.1601 42.7552 34.9816 42.7552C34.8032 42.7552 34.6288 42.7024 34.4803 42.6034C34.3319 42.5045 34.216 42.3638 34.1473 42.1992L33.7078 41.188C32.9351 39.3991 31.5199 37.9648 29.7416 37.1681L28.3855 36.5625C28.221 36.4868 28.0817 36.3655 27.984 36.2131C27.8863 36.0606 27.8344 35.8833 27.8344 35.7022C27.8344 35.5211 27.8863 35.3438 27.984 35.1914C28.0817 35.0389 28.221 34.9176 28.3855 34.842L29.6665 34.272C31.4896 33.4527 32.9289 31.9653 33.6881 30.1164L34.1402 29.0248C34.2065 28.8557 34.3223 28.7105 34.4724 28.6082C34.6225 28.5059 34.8 28.4512 34.9816 28.4512C35.1633 28.4512 35.3408 28.5059 35.4909 28.6082C35.641 28.7105 35.7567 28.8557 35.8231 29.0248L36.2751 30.1146C37.0335 31.9639 38.4723 33.4519 40.295 34.272L41.5778 34.8438C41.7418 34.9196 41.8806 35.0409 41.978 35.1932C42.0753 35.3454 42.127 35.5224 42.127 35.7031C42.127 35.8838 42.0753 36.0608 41.978 36.213C41.8806 36.3653 41.7418 36.4866 41.5778 36.5625L40.2199 37.1663C38.4419 37.9638 37.0274 39.3987 36.2555 41.188ZM45.2331 47.6947L53.7409 63.2917H66.2471L51.9543 36.4928L45.2331 47.6947ZM50.1677 63.2917L39.4481 43.6392L28.7286 63.2917H50.1677Z" fill="#015547" fill-opacity="0.44"/>
<path d="M72.6566 82.933L89.5759 100.792" stroke="#A6D2AC" stroke-width="6" stroke-linecap="round"/>
</svg>
