<svg width="48" height="48" viewBox="0 0 48 48" fill="none" xmlns="http://www.w3.org/2000/svg">
<circle cx="23.8634" cy="24" r="23.8634" fill="#73D94F" fill-opacity="0.32"/>
<path d="M17.6902 18.8786L17.4442 19.4446C17.4057 19.5368 17.3409 19.6155 17.2578 19.6709C17.1747 19.7262 17.0771 19.7558 16.9772 19.7558C16.8773 19.7558 16.7797 19.7262 16.6966 19.6709C16.6135 19.6155 16.5486 19.5368 16.5102 19.4446L16.2642 18.8786C15.8317 17.8773 15.0396 17.0745 14.0442 16.6286L13.2852 16.2896C13.1931 16.2472 13.1151 16.1794 13.0604 16.094C13.0057 16.0087 12.9767 15.9094 12.9767 15.8081C12.9767 15.7067 13.0057 15.6075 13.0604 15.5222C13.1151 15.4368 13.1931 15.369 13.2852 15.3266L14.0022 15.0076C15.0226 14.549 15.8283 13.7165 16.2532 12.6816L16.5062 12.0706C16.5434 11.9759 16.6082 11.8947 16.6922 11.8374C16.7762 11.7801 16.8755 11.7495 16.9772 11.7495C17.0789 11.7495 17.1782 11.7801 17.2622 11.8374C17.3462 11.8947 17.411 11.9759 17.4482 12.0706L17.7012 12.6806C18.1257 13.7157 18.931 14.5485 19.9512 15.0076L20.6692 15.3276C20.761 15.3701 20.8387 15.4379 20.8932 15.5232C20.9477 15.6084 20.9766 15.7074 20.9766 15.8086C20.9766 15.9097 20.9477 16.0088 20.8932 16.094C20.8387 16.1793 20.761 16.2471 20.6692 16.2896L19.9092 16.6276C18.914 17.074 18.1223 17.8771 17.6902 18.8786ZM22.7152 22.5206L27.4772 31.2506H34.4772L26.4772 16.2506L22.7152 22.5206ZM25.4772 31.2506L19.4772 20.2506L13.4772 31.2506H25.4772Z" fill="#015547"/>
</svg>
