<svg width="37" height="28" viewBox="0 0 37 28" fill="none" xmlns="http://www.w3.org/2000/svg">
<g id="Iso">
<path id="Vector" d="M16.9159 10.2291C16.9159 10.2291 19.5466 7.49636 23.3033 7.97373C24.1872 8.08615 24.8652 8.31792 25.3875 8.60331C25.7905 8.21069 26.1745 7.80077 26.5394 7.37183C24.1976 3.21211 19.7403 0.401489 14.6259 0.401489C11.4936 0.401489 8.60856 1.45828 6.30299 3.23113C7.63479 4.05789 8.39755 4.85005 8.39755 4.85005C11.6337 4.08037 13.7386 6.09883 13.7386 6.09883H3.52523C2.71577 7.22481 2.07409 8.47705 1.63477 9.82096C4.70656 12.2614 8.59472 13.7212 12.8219 13.7212C16.2759 13.7212 19.5034 12.7475 22.2431 11.0594H13.3615C13.3615 11.0594 14.7625 9.71545 16.9142 10.2291H16.9159Z" fill="white"/>
<path id="Vector_2" d="M3.52719 6.09882H3.82987C3.29196 6.69726 2.80421 7.33895 2.37354 8.01696C2.44272 7.87513 2.51536 7.73676 2.59147 7.59666C2.63298 7.51883 2.67622 7.43927 2.71946 7.36143C2.7921 7.23517 2.86474 7.10891 2.94085 6.98611L3.03252 6.83563C3.16743 6.61943 3.30753 6.41015 3.45454 6.20086C3.47876 6.16627 3.50297 6.13341 3.52719 6.09882Z" fill="white"/>
<path id="Vector_3" d="M8.65103 19.4454C5.61284 18.4275 3.02261 16.731 1 14.5984C1 14.6148 1 14.6329 1 14.6493C1 21.8008 7.0473 27.5984 14.5068 27.5984C21.9664 27.5984 27.6786 22.1155 28 15.2361C23.0845 19.9191 15.6335 21.7861 8.65273 19.4454H8.65103Z" fill="white"/>
<path id="Vector_4" d="M36.9709 3.61415C36.9709 3.61415 36.8135 3.55212 36.5263 3.67463C36.2391 3.79714 35.6994 4.022 35.4936 4.21739C35.1735 4.52134 34.5698 4.97726 34.0197 5.49986L32.7759 5.32463L33.0129 5.09977C33.0977 5.01913 33.0942 4.89352 33.0043 4.81753C32.9143 4.74155 32.7742 4.74465 32.6894 4.82529L32.2431 5.25019L31.5425 5.15094L31.738 4.9664C31.8228 4.88576 31.8193 4.76015 31.7294 4.68417C31.6394 4.60818 31.4993 4.61128 31.4145 4.69192L31.0097 5.07651L28.0413 4.65625L27.5811 5.09201L31.1429 6.57143L31.9629 7.26461L30.9388 8.54553L30.124 9.51474L27.7662 9.20459C27.6607 9.19064 27.5534 9.2232 27.4808 9.29298C27.3337 9.43255 27.3735 9.65896 27.5621 9.75201L29.0481 10.4809C27.3943 11.9603 25.4516 13.1869 23.3325 14.0925C22.0974 14.6213 20.8035 15.0432 19.4732 15.3486L18.4699 15.5564C18.1325 15.6107 17.7952 15.6712 17.4562 15.7224C17.1154 15.7627 16.7763 15.8108 16.4338 15.8449L15.4045 15.9085C14.0327 15.9674 12.654 15.9395 11.284 15.8015C9.91564 15.6603 8.55769 15.4014 7.23952 15.0245C4.6032 14.2709 2.1191 13.0411 0 11.4051C2.01357 13.1466 4.45443 14.5019 7.10114 15.3828C8.42449 15.8247 9.79801 16.1504 11.1975 16.3551C12.5969 16.5629 14.0224 16.6404 15.4426 16.5768L16.5047 16.4962C16.8576 16.4652 17.2105 16.4249 17.5634 16.3892C17.9146 16.3442 18.2657 16.2884 18.6169 16.2388L19.6618 16.0434C21.0474 15.7518 22.4036 15.3393 23.7027 14.8121C25.9429 13.9049 28.0153 12.655 29.7954 11.1229L30.6793 12.3929C30.7935 12.5558 31.0478 12.579 31.1948 12.4394C31.2675 12.3697 31.2986 12.272 31.2779 12.1789L30.797 10.087L31.8297 9.30229L33.198 8.31136L34.018 9.00455L35.8707 12.1076L36.3308 11.6718L35.7115 9.12085L36.1526 8.70215C36.2374 8.62151 36.234 8.4959 36.144 8.41991C36.054 8.34393 35.9139 8.34703 35.8292 8.42767L35.5974 8.64787L35.4469 8.02758L35.9295 7.56856C36.0143 7.48792 36.0108 7.36231 35.9208 7.28632C35.8309 7.21033 35.6908 7.21343 35.606 7.29407L35.3327 7.55305L35.0455 6.36828C35.5956 5.84723 36.0679 5.27965 36.3879 4.97571C36.5938 4.78031 36.8135 4.28408 36.9328 4.02045C37.0539 3.75682 36.9743 3.61881 36.9743 3.61881L36.9709 3.61415Z" fill="white"/>
</g>
</svg>
