<svg width="25" height="25" viewBox="0 0 25 25" fill="none" xmlns="http://www.w3.org/2000/svg">
<path d="M13.3413 23.5C12.9246 23.5 12.5706 23.3583 12.2793 23.075C11.988 22.7917 11.842 22.4417 11.8413 22.025C11.8413 21.825 11.879 21.6333 11.9543 21.45C12.0296 21.2667 12.142 21.1083 12.2913 20.975L13.3413 20L14.3913 20.975C14.5413 21.1083 14.654 21.2667 14.7293 21.45C14.8046 21.6333 14.842 21.825 14.8413 22.025C14.8413 22.4417 14.6956 22.7917 14.4043 23.075C14.113 23.3583 13.7586 23.5 13.3413 23.5ZM9.89131 22L8.84131 20.95L11.7913 18L12.8413 19.05L9.89131 22ZM16.3413 20.5L14.8413 19L16.3413 17.5L17.8413 19L16.3413 20.5ZM7.34131 20.5L5.84131 19L7.34131 17.5L8.84131 19L7.34131 20.5ZM8.34131 16.5C6.82464 16.5 5.52898 15.9627 4.45431 14.888C3.37964 13.8133 2.84198 12.5173 2.84131 11C2.84131 9.61667 3.29964 8.40833 4.21631 7.375C5.13298 6.34167 6.26631 5.73333 7.61631 5.55C8.14964 4.6 8.87898 3.854 9.80431 3.312C10.7296 2.77 11.742 2.49933 12.8413 2.5C14.3413 2.5 15.6456 2.97933 16.7543 3.938C17.863 4.89667 18.5336 6.09233 18.7663 7.525C19.9163 7.625 20.883 8.1 21.6663 8.95C22.4496 9.8 22.8413 10.8167 22.8413 12C22.8413 13.25 22.404 14.3127 21.5293 15.188C20.6546 16.0633 19.592 16.5007 18.3413 16.5H8.34131Z" fill="#3D808B"/>
</svg>
