<svg width="24" height="25" viewBox="0 0 24 25" fill="none" xmlns="http://www.w3.org/2000/svg">
<path d="M6.5 20.5C4.98333 20.5 3.68767 19.975 2.613 18.925C1.53833 17.875 1.00067 16.5917 1 15.075C1 13.775 1.39167 12.6167 2.175 11.6C2.95833 10.5833 3.98333 9.93333 5.25 9.65C5.66667 8.11667 6.5 6.875 7.75 5.925C9 4.975 10.4167 4.5 12 4.5C13.95 4.5 15.6043 5.17933 16.963 6.538C18.3217 7.89667 19.0007 9.55067 19 11.5C20.15 11.6333 21.1043 12.1293 21.863 12.988C22.6217 13.8467 23.0007 14.8507 23 16C23 17.25 22.5627 18.3127 21.688 19.188C20.8133 20.0633 19.7507 20.5007 18.5 20.5H6.5Z" fill="#3D808B"/>
</svg>
