<svg width="22" height="16" viewBox="0 0 22 16" fill="none" xmlns="http://www.w3.org/2000/svg">
<path id="YouTube" fill-rule="evenodd" clip-rule="evenodd" d="M20.9055 1.19358C21.5648 1.88386 21.78 3.45137 21.78 3.45137C21.78 3.45137 22 5.29258 22 7.13307V8.85911C22 10.7003 21.78 12.5408 21.78 12.5408C21.78 12.5408 21.5648 14.1083 20.9055 14.7986C20.1517 15.6152 19.3159 15.6995 18.8435 15.7472C18.7915 15.7525 18.7439 15.7573 18.7014 15.7626C15.6227 15.9929 11 16 11 16C11 16 5.28 15.946 3.52 15.7711C3.43661 15.755 3.33553 15.7424 3.22106 15.7283C2.66356 15.6591 1.78854 15.5506 1.09381 14.7986C0.4345 14.1083 0.22 12.5408 0.22 12.5408C0.22 12.5408 0 10.7003 0 8.85911V7.13307C0 5.29258 0.22 3.45137 0.22 3.45137C0.22 3.45137 0.4345 1.88386 1.09381 1.19358C1.84928 0.375858 2.68589 0.2924 3.15836 0.245267C3.20958 0.240157 3.25653 0.235474 3.29862 0.230328C6.37725 0 10.9952 0 10.9952 0H11.0048C11.0048 0 15.6227 0 18.7014 0.230328C18.7435 0.235482 18.7904 0.240171 18.8417 0.24529C19.3138 0.292427 20.1508 0.375991 20.9055 1.19358ZM9 5L9.00069 11L15 8.01034L9 5Z" fill="white"/>
</svg>
