<svg width="140" height="24" viewBox="0 0 140 24" fill="none" xmlns="http://www.w3.org/2000/svg">
<path d="M73.0359 6.46409C78.5877 6.46409 82.2845 10.9351 81.4429 16.3422H68.65C68.9824 18.8947 70.8762 20.3865 73.0359 20.3865C75.1957 20.3865 76.4044 19.7545 76.8571 18.3646H81.343C80.6262 21.9758 77.6661 24 73.1024 24C67.8523 24 64.1306 20.2873 64.1306 15.2158C64.1306 10.1443 67.9852 6.46454 73.0359 6.46454V6.46409ZM73.0029 9.91154C70.9761 9.91154 69.4142 11.0718 68.8494 13.0608H76.957C76.8575 11.2708 75.2291 9.91154 73.0029 9.91154ZM120.088 18.1986H124.341C124.527 19.7942 125.522 20.4858 127.631 20.4858C129.591 20.4858 130.422 19.69 130.422 18.5302C130.422 17.8007 129.851 17.4231 128.893 17.1046C127.956 16.7929 126.7 16.5741 125.438 16.2759C122.912 15.6791 120.321 14.6848 120.321 11.5026C120.321 8.88389 122.68 6.46409 126.9 6.46409C131.419 6.46409 133.987 8.25909 134.343 11.6682H130.156C129.926 10.3762 128.764 9.77891 126.9 9.77891C125.338 9.77891 124.574 10.5084 124.574 11.2708C124.574 12.0332 125.128 12.4279 126.102 12.7292C127.057 13.0247 128.328 13.1934 129.591 13.4916C132.149 14.0551 134.741 15.0827 134.741 18.4309C134.741 21.5802 131.917 23.9337 127.564 23.9337C123.211 23.9337 120.239 21.7805 120.088 18.1991V18.1986ZM101.446 17.5688V6.76228H106.032V16.6738C106.032 18.8284 107.261 20.0883 109.222 20.0883C111.747 20.0883 113.309 17.8675 113.309 14.0885V6.76273H117.927V23.6355H113.574V20.9838C112.578 22.6746 110.484 23.9341 107.859 23.9341C104.171 23.9341 101.446 21.5806 101.446 17.5697L101.446 17.5688ZM45.2239 6.76228H49.5433V9.2484C50.7394 7.72361 52.8331 6.46409 55.4247 6.46409C59.1794 6.46409 61.9709 8.81758 61.9709 12.7955V23.635H57.4185V13.7569C57.4185 11.6023 56.0895 10.3094 54.1287 10.3094C51.4372 10.3094 49.7758 12.5303 49.7758 16.3093V23.635H45.2234V6.76228H45.2239ZM34.2587 6.46409C39.8105 6.46409 43.5073 10.9351 42.6657 16.3422H29.8728C30.2052 18.8947 32.099 20.3865 34.2587 20.3865C36.4185 20.3865 37.6272 19.7545 38.0799 18.3646H42.5658C41.849 21.9758 38.8889 24 34.3252 24C29.0751 24 25.3534 20.2873 25.3534 15.2158C25.3534 10.1443 29.208 6.46454 34.2587 6.46454V6.46409ZM12.0952 23.9332C5.78192 23.9332 0 19.4581 0 11.9668C0 4.9393 5.11717 0 12.1617 0C17.8771 0 22.363 3.31482 22.7614 7.88917H17.9431C17.5777 5.56862 15.1851 3.97752 12.1612 3.97752C7.87473 3.97752 4.9173 7.15972 4.9173 11.9664C4.9173 16.7731 8.00768 19.9219 12.2607 19.9219C15.8494 19.9219 18.242 17.8666 18.6074 14.9496H12.0283V11.1043H23.1268V23.6346H19.0397V20.6843C17.5777 22.5736 15.0191 23.9328 12.0952 23.9328V23.9332ZM34.2253 9.91154C32.1985 9.91154 30.6366 11.0718 30.0718 13.0608H38.1794C38.0799 11.2708 36.4515 9.91154 34.2253 9.91154ZM100.716 0.464202L93.771 11.4363L101.746 23.635H96.0967L90.9795 15.6796L85.8953 23.635H80.5457L88.321 11.6023L81.2435 0.464202H86.826L90.0159 5.50275L89.6505 8.91728L89.9494 9.01652L95.3325 0.464202H100.716ZM136.17 0.430819H136.868L137.499 1.75666C137.599 2.22086 137.665 2.55243 137.665 2.55243C137.665 2.55243 137.732 2.22086 137.931 1.75666L138.53 0.430819H139.227V3.1822H138.729V1.1269C138.729 1.1269 138.596 1.39215 138.43 1.82297L137.865 3.1822H137.5L136.935 1.82297C136.769 1.39215 136.669 1.1269 136.669 1.1269V3.1822H136.171V0.430819H136.17ZM134.21 0.895021H133.379V0.430819H135.605V0.895021H134.741V3.1822H134.21V0.895021Z" fill="white"/>
</svg>
