<svg width="24" height="24" viewBox="0 0 24 24" fill="none" xmlns="http://www.w3.org/2000/svg">
<path d="M14.6667 9.33333H5.77778V5.77778H14.6667M12 18.2222C11.2928 18.2222 10.6145 17.9413 10.1144 17.4412C9.61428 16.9411 9.33333 16.2628 9.33333 15.5556C9.33333 14.8483 9.61428 14.17 10.1144 13.6699C10.6145 13.1698 11.2928 12.8889 12 12.8889C12.7072 12.8889 13.3855 13.1698 13.8856 13.6699C14.3857 14.17 14.6667 14.8483 14.6667 15.5556C14.6667 16.2628 14.3857 16.9411 13.8856 17.4412C13.3855 17.9413 12.7072 18.2222 12 18.2222ZM16.4444 4H5.77778C4.79111 4 4 4.8 4 5.77778V18.2222C4 18.6937 4.1873 19.1459 4.5207 19.4793C4.8541 19.8127 5.30628 20 5.77778 20H18.2222C18.6937 20 19.1459 19.8127 19.4793 19.4793C19.8127 19.1459 20 18.6937 20 18.2222V7.55556L16.4444 4Z" fill="#121212"/>
</svg>
